<svg width="29" height="29" viewBox="0 0 29 29" fill="none" xmlns="http://www.w3.org/2000/svg">
<path d="M14.5 18.125C16.502 18.125 18.125 16.502 18.125 14.5C18.125 12.498 16.502 10.875 14.5 10.875C12.498 10.875 10.875 12.498 10.875 14.5C10.875 16.502 12.498 18.125 14.5 18.125Z" stroke="white" stroke-width="1.5" stroke-miterlimit="10" stroke-linecap="round" stroke-linejoin="round"/>
<path d="M2.41797 15.5633V13.4367C2.41797 12.18 3.44505 11.1408 4.7138 11.1408C6.90089 11.1408 7.79505 9.59417 6.69547 7.69709C6.06714 6.60959 6.44172 5.19584 7.5413 4.5675L9.63172 3.37125C10.5863 2.80334 11.8188 3.14167 12.3867 4.09625L12.5196 4.32584C13.6071 6.22292 15.3955 6.22292 16.4951 4.32584L16.628 4.09625C17.1959 3.14167 18.4284 2.80334 19.383 3.37125L21.4734 4.5675C22.573 5.19584 22.9476 6.60959 22.3192 7.69709C21.2196 9.59417 22.1138 11.1408 24.3009 11.1408C25.5576 11.1408 26.5967 12.1679 26.5967 13.4367V15.5633C26.5967 16.82 25.5696 17.8592 24.3009 17.8592C22.1138 17.8592 21.2196 19.4058 22.3192 21.3029C22.9476 22.4025 22.573 23.8042 21.4734 24.4325L19.383 25.6288C18.4284 26.1967 17.1959 25.8583 16.628 24.9038L16.4951 24.6742C15.4076 22.7771 13.6192 22.7771 12.5196 24.6742L12.3867 24.9038C11.8188 25.8583 10.5863 26.1967 9.63172 25.6288L7.5413 24.4325C6.44172 23.8042 6.06714 22.3904 6.69547 21.3029C7.79505 19.4058 6.90089 17.8592 4.7138 17.8592C3.44505 17.8592 2.41797 16.82 2.41797 15.5633Z" stroke="white" stroke-width="1.5" stroke-miterlimit="10" stroke-linecap="round" stroke-linejoin="round"/>
</svg>
